<svg width="54" height="60" viewBox="0 0 54 60" fill="none" xmlns="http://www.w3.org/2000/svg">
<path d="M53.3666 26.4858C53.3666 25.5142 52.5804 24.7279 51.6087 24.7279H44.5771C43.6054 24.7279 42.8192 25.5142 42.8192 26.4858C42.8192 27.4575 43.6054 28.2437 44.5771 28.2437H51.6087C52.5804 28.2437 53.3666 27.4575 53.3666 26.4858Z" fill="white"/>
<path d="M26.998 10.6646C27.9697 10.6646 28.7559 9.87839 28.7559 8.90674V1.75791C28.7559 0.786254 27.9697 0 26.998 0C26.0263 0 25.2401 0.786254 25.2401 1.75791V8.90674C25.2401 9.87839 26.0263 10.6646 26.998 10.6646Z" fill="white"/>
<path d="M12.6326 52.1266L17.605 47.1542L7.66101 37.2101L2.68941 42.1817C-0.0522223 44.9234 -0.0522223 49.3851 2.68941 52.1266C5.42695 54.8675 9.89274 54.8699 12.6326 52.1266Z" fill="white"/>
<path d="M32.785 38.453L42.8106 36.4479C43.4458 36.3209 43.9608 35.854 44.1479 35.2342C44.3351 34.6127 44.1668 33.9398 43.7085 33.4815L21.3346 11.1059C20.8763 10.6475 20.2085 10.4758 19.5819 10.6664C18.9621 10.8536 18.4952 11.3685 18.3682 12.0037L16.3631 22.031C15.4201 26.7483 13.2119 31.0427 10.0558 34.6331L20.1821 44.7595C23.7718 41.6044 28.0675 39.3978 32.785 38.453Z" fill="white"/>
<path d="M26.4234 58.4582C28.48 56.4016 28.48 53.0575 26.4234 51.0008L22.6683 47.2449C22.2232 47.6286 21.7529 47.9779 21.3346 48.3962L15.1189 54.6119L18.966 58.4582C21.0208 60.513 24.3668 60.5149 26.4234 58.4582Z" fill="white"/>
<path d="M51.4216 8.04302C50.2146 6.83604 48.6823 6.23741 46.9581 6.29132C47.012 4.56716 46.4134 3.03485 45.2064 1.82787C42.7668 -0.61175 38.942 -0.608938 36.4989 1.8342C33.9154 4.41774 34.3861 8.20978 35.0377 13.4581C35.1507 14.3677 35.2674 15.3082 35.3796 16.3169C35.4249 16.7254 35.6089 17.0911 35.8836 17.3658C36.1583 17.6405 36.524 17.8245 36.9325 17.8698C37.9412 17.982 38.8817 18.0987 39.7914 18.2117C45.0396 18.8633 48.8317 19.3342 51.4152 16.7505C53.8585 14.3074 53.8612 10.4826 51.4216 8.04302Z" fill="white"/>
</svg>
