<svg width="58" height="60" viewBox="0 0 58 60" fill="none" xmlns="http://www.w3.org/2000/svg">
<path d="M24.3609 40.0006L24.2839 36.9548L26.5607 36.9136V40.0527L24.4058 40.0505L24.3609 40.0006ZM5.15223 24.9387H52.8585V57.8306C52.8585 59.0281 51.9029 60 50.7206 60H7.29009C6.10785 60 5.15223 59.0281 5.15223 57.8306V24.9387ZM19.3583 36.8811L19.3604 39.9984C19.4502 41.9378 20.8484 44.886 24.4592 45.0726H26.5607V48.242L24.3844 48.2485C24.3844 48.2485 24.2219 45.4674 21.5004 45.6909C20.1386 45.7993 19.2044 47.1291 19.3797 48.498C19.8329 51.969 22.5095 53.2229 24.1984 53.2229H26.5586V54.2121C26.5586 55.594 27.6596 56.7156 29.0193 56.7156C30.3832 56.7156 31.4863 55.594 31.4863 54.2121V53.2229H34.1351C34.1351 53.2229 38.6182 52.7825 38.6396 47.8624L38.6375 45.1268C38.2484 40.2739 33.6563 40.0657 33.6563 40.0657L31.4842 40.0613V36.9093H33.0512C33.2522 36.9244 33.6306 36.9483 33.7631 37.4147C34.0432 38.7315 35.2874 39.5971 36.6236 39.3411C37.9662 39.0873 38.847 37.777 38.5926 36.419C38.3253 34.9698 36.893 32.1627 33.2201 31.911H31.4821V30.9891C31.4821 29.6072 30.3768 28.4878 29.015 28.4878C27.6532 28.4878 26.5543 29.6072 26.5543 30.9891V31.9132H24.2775C19.1488 32.7636 19.3583 36.8811 19.3583 36.8811ZM33.6456 45.0487L31.4906 45.0748V48.229L33.6156 48.2225L33.6456 45.0487ZM58 18.5434C58 19.7409 57.0444 20.7128 55.8622 20.7128H2.14854C0.966311 20.7128 0.0106895 19.7409 0.0106895 18.5434L0 12.2219C0 11.0244 0.955621 10.0525 2.13786 10.0525H9.3296C8.92341 9.39517 8.58776 8.69446 8.45522 7.90048C8.1944 6.3624 8.46804 4.01297 11.2686 1.55074C11.4995 1.34682 13.6074 -0.414708 17.1413 0.0907543C21.0493 0.639604 25.0279 3.6919 28.9936 9.15654C32.9572 3.6919 36.9379 0.641774 40.8459 0.0907543C44.3733 -0.406031 46.4898 1.34682 46.7186 1.54857C49.5191 4.01297 49.7928 6.36239 49.532 7.89831C49.3973 8.6923 49.0616 9.393 48.6576 10.0525H55.8493C57.0316 10.0525 57.9872 11.0244 57.9872 12.2219L58 18.5434ZM24.2625 10.0525C20.7629 5.75497 18.1183 4.65293 16.7073 4.41213C15.0056 4.11493 14.0649 4.83516 14.0243 4.86553C13.3573 5.4556 12.5342 6.3689 12.6668 7.16072C12.8357 8.16297 14.2616 9.29321 15.6192 10.0525H24.2625ZM45.3204 7.16072C45.4551 6.37107 44.632 5.4556 43.918 4.82865C43.9115 4.82865 42.9623 4.12144 41.282 4.4143C39.8731 4.6551 37.2949 5.79402 33.7803 10.0547H42.3702C43.7256 9.29321 45.1515 8.16297 45.3204 7.16072Z" fill="white"/>
</svg>
