<svg width="28" height="28" viewBox="0 0 28 28" fill="none" xmlns="http://www.w3.org/2000/svg">
<path d="M14.0003 0.666748C6.64033 0.666748 0.666992 6.64008 0.666992 14.0001C0.666992 21.3601 6.64033 27.3334 14.0003 27.3334C21.3603 27.3334 27.3337 21.3601 27.3337 14.0001C27.3337 6.64008 21.3603 0.666748 14.0003 0.666748ZM14.0003 24.6667C8.12033 24.6667 3.33366 19.8801 3.33366 14.0001C3.33366 8.12008 8.12033 3.33341 14.0003 3.33341C19.8803 3.33341 24.667 8.12008 24.667 14.0001C24.667 19.8801 19.8803 24.6667 14.0003 24.6667ZM20.1203 8.10675L11.3337 16.8934L7.88033 13.4534L6.00033 15.3334L11.3337 20.6667L22.0003 10.0001L20.1203 8.10675Z" fill="#00715D"/>
</svg>
