 <svg width="24" height="24" viewBox="0 0 24 24" fill="none" xmlns="http://www.w3.org/2000/svg">
<path d="M9.20802 10.245C9.16503 10.784 8.888 11.343 8.486 11.704C8.34898 11.827 8.29002 12.017 8.33502 12.197L8.53902 13.014C8.58402 13.193 8.723 13.333 8.903 13.378L10.694 13.825C10.941 13.8859 11.171 14.005 11.378 14.179C11.59 14.356 11.905 14.329 12.083 14.116C12.259 13.9039 12.231 13.5889 12.02 13.411C11.696 13.14 11.332 12.9529 10.937 12.853L9.43602 12.4789L9.37302 12.2269C9.76203 11.797 10.039 11.248 10.153 10.678C10.42 10.54 10.615 10.2769 10.654 9.96194L10.762 9.09396C10.795 8.83094 10.714 8.56394 10.539 8.36496C10.485 8.30294 10.423 8.24894 10.356 8.20394L10.382 7.67294L10.473 7.58092C10.731 7.30792 11.08 6.72194 10.528 5.87894C10.266 5.47895 9.72702 4.99994 8.64402 4.99994C8.32503 4.99994 7.60602 4.99994 6.908 5.43892C4.85 5.51092 4.60798 6.61994 4.60798 7.45694C4.60798 7.62194 4.63798 7.93094 4.66597 8.18894C4.59195 8.23596 4.52497 8.29394 4.46497 8.36092C4.28698 8.56192 4.20495 8.82991 4.23898 9.09391L4.34698 9.96391C4.388 10.2899 4.595 10.5599 4.89997 10.6929C5.01195 11.2389 5.27398 11.7659 5.63895 12.1859L5.56597 12.4799L4.06498 12.8539C2.84998 13.1579 2 14.2459 2 15.4999C2 15.7759 2.22402 16 2.50002 16H9.557C9.833 16 10.057 15.7759 10.057 15.4999C10.057 15.2239 9.83305 15 9.55705 15L3.07503 14.999C3.24603 14.4281 3.70705 13.974 4.30902 13.824L6.101 13.377C6.28002 13.332 6.41998 13.193 6.46498 13.013L6.67798 12.1601C6.722 11.9851 6.66697 11.7991 6.53399 11.675C6.14497 11.3081 5.888 10.773 5.84497 10.2431C5.82397 9.98303 5.60197 9.84007 5.34097 9.84007L5.21197 9.04305C5.35597 9.04305 5.49195 8.98103 5.58697 8.87407C5.68198 8.76508 5.72595 8.62305 5.70795 8.48008C5.66994 8.17807 5.60895 7.6331 5.60895 7.4561C5.60895 6.93911 5.60895 6.45011 7.07094 6.43511C7.17294 6.43413 7.27292 6.40211 7.35692 6.34113C7.83303 6.00002 8.38105 6.00002 8.64402 6.00002C9.41202 6.00002 9.62103 6.32003 9.69402 6.427C9.89703 6.739 9.81402 6.82699 9.758 6.88699L9.54102 7.10397C9.45303 7.19196 9.401 7.30896 9.395 7.43299L9.341 8.52199C9.335 8.65797 9.35098 8.752 9.44502 8.85199C9.53802 8.95099 9.635 8.96997 9.77103 8.97199L9.70602 9.784C9.44502 9.784 9.22902 9.98402 9.20802 10.245Z" fill="#263734" fill-opacity="0.6"/>
<path d="M14.5 8.00003H17.5C17.776 8.00003 18 7.77602 18 7.50002C18 7.22402 17.776 7 17.5 7H14.5C14.224 7 14 7.22402 14 7.50002C14 7.77602 14.224 8.00003 14.5 8.00003Z" fill="#263734" fill-opacity="0.6"/>
<path d="M21.5 0H2.49998C1.12102 0 0 1.12102 0 2.49998V15.5C0 16.879 1.12102 18 2.49998 18H9.89798C10.175 18 10.398 17.776 10.398 17.5C10.398 17.224 10.174 17 9.89798 17H2.49998C1.67297 17 0.999984 16.327 0.999984 15.5V3.99998H23V13.81C23 14.086 23.224 14.31 23.5 14.31C23.776 14.31 24 14.086 24 13.81V2.49998C24 1.12102 22.879 0 21.5 0ZM23 3H0.999984V2.49998C0.999984 1.67297 1.67297 0.999984 2.49998 0.999984H21.5C22.327 0.999984 23 1.67297 23 2.49998V3H23Z" fill="#263734" fill-opacity="0.6"/>
<path d="M21.5 8.00003C21.776 8.00003 22 7.77602 22 7.50002C22 7.22402 21.776 7 21.5 7H19.5C19.224 7 19 7.22402 19 7.50002C19 7.77602 19.224 8.00003 19.5 8.00003H21.5Z" fill="#263734" fill-opacity="0.6"/>
<path d="M24 16C24 15.582 23.689 15.29 23.244 15.29C22.993 15.29 22.563 15.419 22.193 15.632C21.704 14.6 20.904 13.685 20.331 13.4C19.952 13.211 18.661 13 17.5 13C16.339 13 15.048 13.211 14.668 13.4C14.097 13.685 13.297 14.6 12.807 15.632C12.436 15.419 12.006 15.29 11.755 15.29C11.565 15.29 11.402 15.339 11.271 15.438C11.097 15.569 11 15.769 11 16C11 16.78 11.605 17.3209 11.675 17.38C11.729 17.4259 11.791 17.455 11.855 17.475C11.616 18.138 11.5 18.874 11.5 19.5C11.5 20.247 11.569 21.521 12 22.172V23C12 23.561 12.439 24 13 24H14C14.561 24 15 23.561 15 23V22.661C15.604 22.812 16.546 23 17.5 23C18.454 23 19.396 22.812 20 22.661V23C20 23.561 20.4389 24 20.9999 24H21.9999C22.5609 24 22.9999 23.561 22.9999 23V22.172C23.4309 21.521 23.4999 20.247 23.4999 19.5C23.4999 18.874 23.3839 18.138 23.1449 17.475C23.2089 17.456 23.2709 17.427 23.3249 17.38C23.395 17.321 24 16.78 24 16ZM15.113 14.296C15.3 14.21 16.367 14 17.5 14C18.633 14 19.7 14.21 19.884 14.294C20.263 14.484 21.1431 15.481 21.493 16.568C20.553 16.7 18.331 17 17.5 17C16.669 17 14.446 16.7 13.506 16.568C13.856 15.481 14.736 14.484 15.113 14.296ZM12.289 16.585C12.257 16.553 12.208 16.501 12.15 16.416C12.216 16.447 12.279 16.482 12.338 16.517C12.322 16.54 12.305 16.561 12.289 16.585ZM14 23H13V22.5H14V23ZM22 23H21V22.5H22V23ZM22.23 21.5H20.5C20.447 21.5 20.394 21.509 20.342 21.525C20.3279 21.53 18.896 22 17.5 22C16.104 22 14.672 21.53 14.658 21.526C14.641 21.521 14.624 21.525 14.607 21.522C14.572 21.514 14.538 21.5 14.5 21.5H12.768C12.637 21.201 12.499 20.512 12.499 19.501C12.499 19.342 12.511 19.1731 12.529 19.0021C13.201 19.021 14 19.2481 14 19.5001C14 19.7761 14.224 20.0001 14.5 20.0001C14.776 20.0001 15 19.776 15 19.5C15 18.278 13.35 18.053 12.725 18.011C12.781 17.828 12.848 17.656 12.924 17.494C12.925 17.494 12.926 17.495 12.927 17.495C13.067 17.516 16.368 18 17.5 18C18.632 18 21.933 17.516 22.073 17.495C22.0739 17.495 22.0739 17.494 22.075 17.494C22.151 17.656 22.218 17.828 22.274 18.011C21.649 18.053 20 18.279 20 19.5C20 19.776 20.224 20 20.5 20C20.776 20 21 19.776 21 19.5C21 19.243 21.794 19.023 22.47 19.002C22.488 19.173 22.5 19.342 22.5 19.5C22.5 20.512 22.361 21.201 22.23 21.5ZM22.71 16.584C22.694 16.561 22.678 16.539 22.661 16.517C22.72 16.482 22.784 16.446 22.849 16.415C22.8 16.489 22.75 16.544 22.71 16.584Z" fill="#263734" fill-opacity="0.6"/>
<path d="M14.5 11H21.5C21.776 11 22 10.776 22 10.5C22 10.224 21.776 10 21.5 10H14.5C14.224 10 14 10.224 14 10.5C14 10.776 14.224 11 14.5 11Z" fill="#263734" fill-opacity="0.6"/>
<path d="M18.5 19H16.5C16.224 19 16 19.224 16 19.5C16 19.776 16.224 20 16.5 20H18.5C18.776 20 19 19.776 19 19.5C19 19.224 18.776 19 18.5 19Z" fill="#263734" fill-opacity="0.6"/>
</svg>
