<svg width="80" height="80" viewBox="0 0 80 80" fill="none" xmlns="http://www.w3.org/2000/svg">
<circle opacity="0.1" cx="40" cy="40" r="40" fill="#00715D"/>
<path d="M41.3333 29.3333V32.8933L40 34.2267L38.6666 32.8933V29.3333H41.3333ZM50.6666 38.6667V41.3333H47.1066L45.7733 40L47.1066 38.6667H50.6666ZM32.8933 38.6667L34.2266 40L32.8933 41.3333H29.3333V38.6667H32.8933ZM40 45.7733L41.3333 47.1067V50.6667H38.6666V47.1067L40 45.7733ZM44 26.6667H36V34L40 38L44 34V26.6667ZM53.3333 36H46L42 40L46 44H53.3333V36ZM34 36H26.6666V44H34L38 40L34 36ZM40 42L36 46V53.3333H44V46L40 42Z" fill="#00715D"/>
</svg>
