<svg width="38" height="36" viewBox="0 0 38 36" fill="none" xmlns="http://www.w3.org/2000/svg">
<path d="M35.8507 30.4596C35.4846 29.9598 36.308 28.1884 35.8507 27.6437C35.3933 27.099 35.1638 24.5549 35.1638 24.5549C35.1638 24.5549 34.8899 21.0121 33.1057 20.6487C31.333 20.2879 24.1164 18.0088 24.0039 17.97C24.7422 18.4892 26.8348 20.5141 27.0484 20.7217C26.6159 20.3363 23.956 19.1043 23.956 19.1043C23.5447 20.7393 20.2511 23.513 20.2511 23.513L20.0224 24.5514C19.885 24.0516 19.885 22.8258 19.885 22.8258C23.956 20.4182 24.0136 15.8255 24.0136 15.8255C24.1886 15.9314 24.3549 16.0509 24.5108 16.1828C24.3744 14.194 23.036 11.9114 23.036 11.9114C23.4791 11.9624 24.1882 12.3206 24.1882 12.3206C23.3825 9.56095 19.6768 9.71407 19.6768 9.71407C17.6142 4.7237 13.6177 0.602746 12.7766 0.175955C11.9355 -0.250835 9.70633 0.0747575 8.65956 1.36833C7.61279 2.6619 8.36795 3.58324 7.64736 4.00827C6.92677 4.4333 7.06415 5.54384 7.06415 5.54384C7.06415 6.77053 6.96133 6.94125 6.39496 7.52028C5.82859 8.0993 6.61832 10.1937 6.61832 10.1937C4.18266 10.1937 2.67234 10.8748 2.67234 10.8748C-0.79236 12.4763 -0.140901 18.8122 0.545125 19.7318C1.23115 20.6514 1.67787 22.15 1.36853 22.5591C1.17122 22.8453 1.04238 23.1725 0.99184 23.5157C0.682508 28.4893 5.4519 36 5.4519 36H10.9188C11.9479 36 11.6394 33.8203 11.6394 33.3996C11.6394 32.979 11.1963 32.9596 11.1963 32.9596C9.54944 32.642 10.1442 30.7799 10.1442 30.7799L10.6476 30.9163L10.785 29.6448L11.4249 29.7328L11.0137 27.8021C11.3567 27.9042 11.8885 27.7141 11.8885 27.7141C11.6137 27.6261 10.0183 26.2841 10.0183 26.2841C7.68193 24.5514 7.25294 21.8578 7.13328 21.16C7.01363 20.4622 8.0081 19.3886 8.45393 19.7458C8.89976 20.1031 9.62035 20.4102 9.62035 20.4102C13.5486 21.4838 13.2747 22.0118 13.2747 22.0118C12.6543 30.5274 15.2477 32.5716 15.2477 32.5716L15.2991 36.0035H20.5285C20.5285 36.0035 21.3342 34.0227 21.5035 33.324C21.6728 32.6252 19.9595 32.7282 19.9595 32.7282C19.9595 32.3023 21.9839 30.3091 21.9839 30.3091C22.5503 32.0805 25.7234 34.4653 25.7234 34.4653H25.0887C25.0931 34.366 25.0577 34.2691 24.9902 34.1958C24.9228 34.1224 24.8288 34.0785 24.7289 34.0737C24.0429 33.7842 23.9906 35.8451 23.9906 35.8451H29.9095C29.9095 34.8912 29.9609 33.7842 29.9609 33.7842C27.0786 31.791 27.3365 31.0562 27.3365 31.0562C27.4251 30.6471 27.2479 30.4658 27.2479 30.4658C27.2479 30.4658 25.6675 28.0018 26.8676 28.2764C28.0677 28.5509 28.806 27.6437 28.806 27.6437C28.8947 28.0977 29.0347 28.052 28.12 28.6882C27.2053 29.3244 28.8521 30.9586 29.9042 32.2301C30.9563 33.5017 32.8779 33.2756 32.8779 33.2756C34.2499 33.4568 33.0605 34.1379 33.0605 34.1379H31.7788V35.274C31.7756 35.4261 31.8172 35.5758 31.8984 35.7047C31.9797 35.8337 32.097 35.9363 32.2362 36H37.9974V33.3662C37.9548 32.6851 36.2167 30.9586 35.8507 30.4596ZM6.77875 7.81859C7.53391 7.02309 7.83083 6.97821 7.85388 6.15983C7.87692 5.34144 7.94251 4.43682 8.5399 4.46762C8.5399 4.46762 9.70633 4.62074 10.255 4.24587C10.8036 3.87099 11.6102 3.78652 11.8938 4.06987C12.1774 4.35322 12.9911 4.75186 12.7686 5.10385C12.5462 5.45584 11.7476 6.5259 10.6237 6.50038C10.6237 6.50038 11.5933 7.3434 11.0872 7.81155C10.5811 8.2797 9.43156 7.76931 9.0203 7.5194C8.60904 7.26948 7.14481 7.4094 7.14481 7.74995C7.14481 7.74995 6.93829 8.10194 8.03646 8.00603C9.13464 7.91011 10.6902 8.61321 10.3463 8.974C10.3463 8.974 9.43156 10.2227 8.24209 10.2227C8.24298 10.2253 6.02713 8.61321 6.77875 7.81859ZM11.1218 20.2853C9.5459 19.9218 7.88844 17.9516 7.88844 17.9516C7.89642 20.0635 6.29835 19.6975 6.29835 19.6975C4.03376 18.8351 4.62849 14.9966 5.08584 13.8843C5.54319 12.772 8.14016 13.0782 7.87869 14.2864C7.7436 14.9766 7.68917 15.68 7.71649 16.3826C7.71649 16.3826 8.79694 12.6127 11.3762 12.6127C14.9667 12.6127 14.5555 13.2956 14.5555 13.2956C13.1037 17.3435 13.4343 20.2879 13.4343 20.2879C13.4343 20.2879 12.703 20.6487 11.1245 20.2853H11.1218ZM16.8741 11.8947C16.8741 11.8947 16.3078 12.4561 15.6572 14.1087C14.567 16.8789 15.6049 20.7851 15.6049 20.7851C12.3822 16.4556 16.8768 11.3517 16.8768 11.3517L16.8741 11.8947ZM8.84835 5.84567C9.43156 5.72335 9.32874 5.60984 9.7143 5.62656C9.98666 5.64802 10.2549 5.70543 10.512 5.79727C12.1429 6.08679 12.0542 4.97977 12.0542 4.97977C12.0365 4.23003 10.7159 4.36378 10.3214 4.82665C9.92702 5.28952 9.54944 5.38808 9.54944 5.38808C9.25784 5.286 9.25784 4.99649 8.94851 4.79233C8.63917 4.58818 8.3458 4.49578 8.14282 5.14433C7.93985 5.79287 8.26514 5.96711 8.84835 5.84567ZM8.31123 6.92101C8.71097 6.89813 9.818 6.50126 9.55742 6.83301L9.28266 7.16212C9.28266 7.16212 10.6068 6.73093 10.0706 6.37894C9.53438 6.02695 9.64871 6.5831 8.67729 6.48102C8.67729 6.48102 8.5984 6.16423 8.21905 6.26542C7.8397 6.36662 7.9106 6.94389 8.31123 6.92101Z" fill="#00715D"/>
</svg>