<svg width="60" height="60" viewBox="0 0 60 60" fill="none" xmlns="http://www.w3.org/2000/svg">
<path d="M0.482422 42.9745L7.26847 60L12.9124 56.6088L6.12639 39.5835L0.482422 42.9745Z" fill="#00715D"/>
<path d="M58.6664 33.8939C55.5359 32.7682 52.0575 33.0236 49.1234 34.5941L38.0315 41.0642L37.9739 41.1133C37.9665 41.1196 37.9587 41.1255 37.9512 41.1315V41.1401H37.9407C37.1344 41.8126 36.1436 42.1831 35.1457 42.1831H26.3341V39.3214H33.8785C35.284 39.3214 36.4233 38.182 36.4233 36.7765C36.4233 35.3778 35.2946 34.2413 33.896 34.2317L25.3309 34.1725C25.1555 34.1706 24.9838 34.1369 24.8208 34.0724C21.3949 32.7179 18.4339 32.6619 16.0204 33.9059C13.3243 35.2954 11.6012 38.1033 10.6562 40.9001L15.3375 52.6447H32.977L58.9274 36.3287C60.1512 35.3847 59.1722 34.076 58.6664 33.8939Z" fill="#00715D"/>
<path d="M39.7787 4.68677C34.1514 -8.01025 12.3235 7.23243 39.6874 24.8827L39.6732 24.8181C68.3633 7.16773 44.474 -7.61021 39.7787 4.68677Z" fill="#00715D"/>
</svg>
