<svg width="60" height="60" viewBox="0 0 60 60" fill="none" xmlns="http://www.w3.org/2000/svg">
<path d="M0.482422 42.9745L7.26847 60L12.9124 56.6088L6.12639 39.5835L0.482422 42.9745Z" fill="white"/>
<path d="M58.6664 33.8938C55.5359 32.7681 52.0575 33.0235 49.1234 34.594L38.0315 41.0641L37.9739 41.1132C37.9665 41.1195 37.9587 41.1254 37.9512 41.1315V41.14H37.9407C37.1344 41.8126 36.1436 42.1831 35.1457 42.1831H26.3341V39.3213H33.8785C35.284 39.3213 36.4233 38.1819 36.4233 36.7764C36.4233 35.3777 35.2946 34.2412 33.896 34.2316L25.3309 34.1724C25.1555 34.1705 24.9838 34.1368 24.8208 34.0723C21.3949 32.7178 18.4339 32.6618 16.0204 33.9058C13.3243 35.2953 11.6012 38.1032 10.6562 40.9L15.3375 52.6447H32.977L58.9274 36.3286C60.1512 35.3846 59.1722 34.0759 58.6664 33.8938Z" fill="white"/>
<path d="M39.7787 4.68671C34.1514 -8.01031 12.3235 7.23237 39.6874 24.8826L39.6732 24.8181C68.3633 7.16767 44.474 -7.61027 39.7787 4.68671Z" fill="white"/>
</svg>
