<svg width="24" height="16" viewBox="0 0 24 16" fill="none" xmlns="http://www.w3.org/2000/svg">
<path d="M22.4 0H1.6C0.716344 0 0 0.716344 0 1.6V14.4C0 15.2836 0.716344 16 1.6 16H22.4C23.2836 16 24 15.2836 24 14.4V1.6C24 0.716344 23.2836 0 22.4 0ZM1.6 0.799999H22.4C22.8418 0.799999 23.2 1.15817 23.2 1.6V4H14.762C13.8464 3.99919 12.9599 3.67827 12.256 3.0928C11.409 2.3878 10.342 2.00122 9.24 2H0.8V1.6C0.8 1.15817 1.15817 0.799999 1.6 0.799999ZM22.4 15.2H1.6C1.15817 15.2 0.8 14.8418 0.8 14.4V2.8H9.24C10.1556 2.80081 11.0421 3.12172 11.746 3.7072C12.593 4.41219 13.66 4.79877 14.762 4.8H23.2V14.4C23.2 14.8418 22.8418 15.2 22.4 15.2Z" fill="#00715D"/>
<path d="M8.56444 8.9736C9.50044 7.8327 9.39029 6.16118 8.31266 5.15298C7.23503 4.14478 5.55989 4.14601 4.48376 5.15581C3.40762 6.16561 3.29995 7.83728 4.23764 8.9768C2.85076 9.74818 1.99342 11.213 2.00004 12.8C2.00004 13.4627 2.5373 14 3.20004 14H9.60003C10.2614 13.9967 10.7968 13.4614 10.8 12.8C10.8062 11.2129 9.95011 9.74752 8.56444 8.9736V8.9736ZM6.40004 5.2C7.50461 5.2 8.40004 6.09543 8.40004 7.2C8.40004 8.30457 7.50461 9.2 6.40004 9.2C5.29547 9.2 4.40004 8.30457 4.40004 7.2C4.40136 6.09598 5.29602 5.20132 6.40004 5.2V5.2ZM9.87763 13.0848C9.80468 13.1594 9.7044 13.201 9.60003 13.2H3.20004C2.97912 13.2 2.80004 13.0209 2.80004 12.8C2.79515 11.4022 3.60716 10.1303 4.87724 9.5464C5.80038 10.1499 6.99283 10.1511 7.91724 9.5496C9.18913 10.1305 10.0037 11.4017 10 12.8C10.0004 12.9078 9.95607 13.0109 9.87763 13.0848Z" fill="#00715D"/>
<path d="M20.8004 6.79999H12.8004C12.5795 6.79999 12.4004 6.97907 12.4004 7.19999C12.4004 7.4209 12.5795 7.59999 12.8004 7.59999H20.8004C21.0213 7.59999 21.2004 7.4209 21.2004 7.19999C21.2004 6.97907 21.0213 6.79999 20.8004 6.79999Z" fill="#00715D"/>
<path d="M12.8004 9.59998H16.8004C17.0213 9.59998 17.2004 9.42089 17.2004 9.19998C17.2004 8.97907 17.0213 8.79999 16.8004 8.79999H12.8004C12.5795 8.79999 12.4004 8.97907 12.4004 9.19998C12.4004 9.42089 12.5795 9.59998 12.8004 9.59998Z" fill="#00715D"/>
<path d="M20.8004 10.8H12.8004C12.5795 10.8 12.4004 10.9791 12.4004 11.2C12.4004 11.4209 12.5795 11.6 12.8004 11.6H20.8004C21.0213 11.6 21.2004 11.4209 21.2004 11.2C21.2004 10.9791 21.0213 10.8 20.8004 10.8Z" fill="#00715D"/>
<path d="M16.8004 12.8H12.8004C12.5795 12.8 12.4004 12.9791 12.4004 13.2001C12.4004 13.421 12.5795 13.6001 12.8004 13.6001H16.8004C17.0213 13.6001 17.2004 13.421 17.2004 13.2001C17.2004 12.9791 17.0213 12.8 16.8004 12.8Z" fill="#00715D"/>
<path d="M14.8004 2.8H16.4004C16.6213 2.8 16.8004 2.62091 16.8004 2.4C16.8004 2.17909 16.6213 2 16.4004 2H14.8004C14.5795 2 14.4004 2.17909 14.4004 2.4C14.4004 2.62091 14.5795 2.8 14.8004 2.8Z" fill="#00715D"/>
<path d="M17.9996 2.8H21.5996C21.8205 2.8 21.9996 2.62091 21.9996 2.4C21.9996 2.17909 21.8205 2 21.5996 2H17.9996C17.7787 2 17.5996 2.17909 17.5996 2.4C17.5996 2.62091 17.7787 2.8 17.9996 2.8Z" fill="#00715D"/>
</svg>
