<svg width="80" height="80" viewBox="0 0 80 80" fill="none" xmlns="http://www.w3.org/2000/svg">
<circle opacity="0.1" cx="40" cy="40" r="40" fill="#00715D"/>
<path d="M43.08 26.6667L43.6267 29.9733C42.4934 29.56 41.28 29.3333 40 29.3333C38.7334 29.3333 37.5067 29.56 36.3867 29.96L36.9334 26.6667H43.08ZM43.6267 50.0267L43.08 53.3333H36.9334L36.3867 50.04C37.5067 50.44 38.7334 50.6667 40 50.6667C41.28 50.6667 42.4934 50.44 43.6267 50.0267ZM45.3334 24H34.6667L33.4 31.64C30.92 33.5867 29.3334 36.6 29.3334 40C29.3334 43.4 30.92 46.4133 33.4 48.36L34.6667 56H45.3334L46.6134 48.36C49.08 46.4133 50.6667 43.3867 50.6667 40C50.6667 36.6133 49.08 33.5867 46.6134 31.64L45.3334 24ZM40 48C35.5867 48 32 44.4133 32 40C32 35.5867 35.5867 32 40 32C44.4134 32 48 35.5867 48 40C48 44.4133 44.4134 48 40 48Z" fill="#00715D"/>
</svg>
