<svg width="32" height="20" viewBox="0 0 32 20" fill="none" xmlns="http://www.w3.org/2000/svg">
<path d="M29.3333 19.3333H21.3333V14H17.76C16.24 17.2267 12.96 19.3333 9.33333 19.3333C4.18667 19.3333 0 15.1467 0 10C0 4.85334 4.18667 0.666672 9.33333 0.666672C12.96 0.666672 16.2267 2.77334 17.76 6.00001H32V14H29.3333V19.3333ZM24 16.6667H26.6667V11.3333H29.3333V8.66667H15.92L15.6133 7.77334C14.68 5.12001 12.1467 3.33334 9.33333 3.33334C5.65333 3.33334 2.66667 6.32001 2.66667 10C2.66667 13.68 5.65333 16.6667 9.33333 16.6667C12.1467 16.6667 14.68 14.88 15.6133 12.2267L15.92 11.3333H24V16.6667ZM9.33333 14C7.13333 14 5.33333 12.2 5.33333 10C5.33333 7.80001 7.13333 6.00001 9.33333 6.00001C11.5333 6.00001 13.3333 7.80001 13.3333 10C13.3333 12.2 11.5333 14 9.33333 14ZM9.33333 8.66667C8.6 8.66667 8 9.26667 8 10C8 10.7333 8.6 11.3333 9.33333 11.3333C10.0667 11.3333 10.6667 10.7333 10.6667 10C10.6667 9.26667 10.0667 8.66667 9.33333 8.66667Z" fill="#00715D"/>
</svg>
