<svg width="36" height="36" viewBox="0 0 36 36" fill="none" xmlns="http://www.w3.org/2000/svg">
<path fill-rule="evenodd" clip-rule="evenodd" d="M18.2507 35.2431C27.9969 35.2431 35.8977 27.3808 35.8977 17.6822C35.8977 7.98354 27.9969 0.121216 18.2507 0.121216C8.50442 0.121216 0.603577 7.98354 0.603577 17.6822C0.603577 27.3808 8.50442 35.2431 18.2507 35.2431ZM23.7559 8.30186C24.0239 7.35462 23.1001 6.7945 22.2565 7.3926L10.4799 15.7413C9.56495 16.3899 9.70886 17.6822 10.696 17.6822H13.7972V17.6583H19.8411L14.9164 19.3874L12.7454 27.0625C12.4774 28.0098 13.4011 28.5699 14.2448 27.9718L26.0214 19.6231C26.9364 18.9745 26.7924 17.6822 25.8053 17.6822H21.1025L23.7559 8.30186Z" fill="#00715D"/>
</svg>
