<svg width="80" height="80" viewBox="0 0 80 80" fill="none" xmlns="http://www.w3.org/2000/svg">
<circle opacity="0.1" cx="40" cy="40" r="40" fill="#00715D"/>
<path d="M50.6666 32H45.3333V29.3333C45.3333 27.8667 44.1333 26.6667 42.6666 26.6667H37.3333C35.8666 26.6667 34.6666 27.8667 34.6666 29.3333V32H29.3333C27.8666 32 26.6666 33.2 26.6666 34.6667V50.6667C26.6666 52.1333 27.8666 53.3333 29.3333 53.3333H50.6666C52.1333 53.3333 53.3333 52.1333 53.3333 50.6667V34.6667C53.3333 33.2 52.1333 32 50.6666 32ZM37.3333 29.3333H42.6666V32H37.3333V29.3333ZM50.6666 50.6667H29.3333V34.6667H50.6666V50.6667Z" fill="#00715D"/>
<path d="M41.3333 37.3333H38.6666V41.3333H34.6666V44H38.6666V48H41.3333V44H45.3333V41.3333H41.3333V37.3333Z" fill="#00715D"/>
</svg>
