<svg width="60" height="60" viewBox="0 0 60 60" fill="none" xmlns="http://www.w3.org/2000/svg">
<path d="M24.7025 20.6525C25.6525 20.9875 26.6313 20.4909 26.9564 19.6019C27.2849 18.6941 26.826 17.6845 25.9058 17.3481C24.9664 17.0132 23.9796 17.5025 23.652 18.3987C23.3235 19.3065 23.7825 20.3159 24.7025 20.6525Z" fill="white"/>
<path d="M30.9442 25.8161C36.9764 25.653 42.9021 23.497 47.6313 19.7444C48.236 19.2654 48.9501 18.9871 49.6912 18.8082L50.3847 16.9034C50.644 16.1928 50.4191 15.3963 49.8252 14.9259C43.9148 10.236 36.5042 7.53931 28.9597 7.33154C22.3611 7.1513 16.0885 4.84025 10.8186 0.873219L10.1801 0.378805C9.73886 0.0302898 9.15702 -0.0864289 8.61104 0.0663836C8.06682 0.220837 7.63089 0.625954 7.43858 1.15646L0.106397 21.0953C-0.152822 21.806 0.0720606 22.6025 0.664326 23.0729C4.81171 26.363 9.81761 28.6461 14.9667 29.8038C19.9315 27.3695 25.3986 25.9686 30.9442 25.8161ZM33.5628 22.0058C33.8949 21.0933 34.9037 20.6231 35.8159 20.9549C36.7283 21.287 37.1986 22.2958 36.8665 23.208C36.5345 24.1204 35.5258 24.5907 34.6134 24.2586C33.7012 23.9267 33.2308 22.9179 33.5628 22.0058ZM20.3492 17.197C21.3431 14.4658 24.3799 13.0513 27.1076 14.0452C29.8404 15.0391 31.2549 18.0724 30.2593 20.8035C29.2665 23.5345 26.2312 24.9523 23.501 23.9553C20.7657 22.9584 19.349 19.9411 20.3492 17.197ZM13.7413 14.7913C14.0733 13.8789 15.0819 13.4086 15.9943 13.7408C16.9065 14.0727 17.3768 15.0814 17.0449 15.9936C16.7128 16.906 15.704 17.3763 14.7919 17.0442C13.8796 16.7122 13.4092 15.7035 13.7413 14.7913Z" fill="white"/>
<path d="M16.8301 58.8425C17.0224 59.3747 17.4601 59.7798 18.0026 59.9326C18.5613 60.0906 19.142 59.962 19.575 59.6184C24.8948 55.3972 31.5639 52.8528 38.3514 52.6674C45.8959 52.4598 53.4237 49.763 59.3357 45.0731C59.9279 44.6027 60.1528 43.8062 59.8936 43.0956L52.5615 23.2739C52.3692 22.7417 51.9315 22.3366 51.3891 22.1838C50.8432 22.0294 50.2612 22.1461 49.8166 22.498C44.4968 26.7192 37.8278 29.1464 31.0403 29.3301C23.4975 29.5378 16.0868 32.2346 10.1748 36.9261C9.58088 37.3965 9.35599 38.193 9.61521 38.9037L16.8301 58.8425ZM44.0057 35.7401C44.9181 35.4081 45.9267 35.8785 46.2587 36.7906C46.5908 37.7031 46.1205 38.7117 45.2081 39.0437C44.2959 39.3757 43.2872 38.9053 42.9551 37.9931C42.6231 37.0807 43.0935 36.0722 44.0057 35.7401ZM32.8925 36.0437C35.6253 35.0498 38.6586 36.4643 39.6508 39.1955C40.6465 41.9266 39.232 44.9598 36.4991 45.9538C33.7761 46.946 30.7448 45.5569 29.7408 42.802C28.7451 40.0708 30.1596 37.0376 32.8925 36.0437ZM24.1841 42.9546C25.0963 42.6226 26.105 43.093 26.4371 44.0052C26.7691 44.9176 26.2987 45.9262 25.3865 46.2582C24.4741 46.5902 23.4655 46.1198 23.1335 45.2076C22.8014 44.2952 23.2718 43.2865 24.1841 42.9546Z" fill="white"/>
<path d="M35.2975 42.651C36.2187 42.3141 36.6762 41.3039 36.348 40.3971C36.0204 39.5015 35.034 39.0114 34.0942 39.3465C33.173 39.6835 32.7154 40.6935 33.0436 41.6004C33.374 42.5038 34.3738 42.9874 35.2975 42.651Z" fill="white"/>
</svg>
