<svg width="24" height="24" viewBox="0 0 24 24" fill="none" xmlns="http://www.w3.org/2000/svg">
<path d="M7.90787 6.86243C5.19573 6.86243 2.99707 9.06108 2.99707 11.7732C2.99707 14.4854 5.19573 16.684 7.90787 16.684C10.62 16.684 12.8187 14.4854 12.8187 11.7732C12.8187 9.06108 10.62 6.86243 7.90787 6.86243ZM11.5422 9.93168H9.77239C9.60312 9.08354 9.33876 8.39802 9.06882 7.86914C10.1503 8.19187 11.0381 8.94179 11.5422 9.93168ZM9.13557 11.7732C9.13557 12.1386 9.10821 12.4742 9.07061 12.7963H6.74529C6.70754 12.4742 6.68012 12.1385 6.68012 11.7732C6.68012 11.4077 6.70708 11.0722 6.74447 10.7501H9.07143C9.10862 11.0722 9.13557 11.4078 9.13557 11.7732ZM7.78879 7.69286C7.82915 7.69169 7.8671 7.68089 7.90787 7.68089C7.94905 7.68089 7.98716 7.69189 8.02814 7.69307C8.33527 8.16425 8.70874 8.90962 8.9349 9.93168H6.88095C7.10818 8.90609 7.48304 8.16108 7.78879 7.69286ZM6.74693 7.86914C6.47796 8.3969 6.21339 9.08318 6.04397 9.93168H4.27352C4.7777 8.94179 5.66548 8.19208 6.74693 7.86914ZM3.81554 11.7732C3.81554 11.4179 3.87529 11.0791 3.96082 10.7501H5.91966C5.88549 11.0743 5.86171 11.4114 5.86171 11.7732C5.86171 12.1353 5.88611 12.472 5.92084 12.7963H3.96082C3.87529 12.4674 3.81554 12.1285 3.81554 11.7732ZM4.27352 13.6148H6.04596C6.21702 14.4648 6.48175 15.1562 6.74575 15.677C5.66486 15.354 4.77749 14.6043 4.27352 13.6148ZM8.02676 15.8536C7.98639 15.8548 7.94864 15.8656 7.90787 15.8656C7.8671 15.8656 7.82935 15.8548 7.78879 15.8536C7.49547 15.4024 7.1134 14.6554 6.88203 13.6148H8.93382C8.70276 14.6547 8.3211 15.4014 8.02676 15.8536ZM9.0704 15.677C9.33477 15.1557 9.59934 14.4649 9.76999 13.6148H11.5422C11.0383 14.6042 10.151 15.3539 9.0704 15.677ZM9.89511 12.7963C9.92969 12.472 9.95404 12.1353 9.95404 11.7732C9.95404 11.4114 9.93046 11.0743 9.89629 10.7501H11.8549C11.9405 11.0791 12.0002 11.418 12.0002 11.7732C12.0002 12.1285 11.9405 12.4674 11.8549 12.7963H9.89511Z" fill="#00715D"/>
<path d="M12.0001 19.1394H3.81543V19.9579H12.0001V19.1394Z" fill="#00715D"/>
<path d="M17.6982 13.2437L17.2744 14.8248L18.065 15.0367L18.4888 13.4556L17.6982 13.2437Z" fill="#00715D"/>
<path d="M16.8499 16.4045L15.3672 21.9382L16.1577 22.1501L17.6404 16.6163L16.8499 16.4045Z" fill="#00715D"/>
<path d="M22.2444 2.59822L12.7575 0.0561673C12.6156 0.0181597 12.4731 0 12.3329 0C11.6101 5.11542e-05 10.9487 0.482384 10.7527 1.21368L9.89711 4.40703H1.35948C0.907484 4.40703 0.541016 4.77345 0.541016 5.2255V21.5948C0.541016 22.0469 0.907484 22.4133 1.35948 22.4133H10.8128L16.5249 23.9438C16.6668 23.9818 16.8092 24 16.9495 24C17.6723 24 18.3337 23.5176 18.5297 22.7863L23.4019 4.603C23.6359 3.7298 23.1176 2.8322 22.2444 2.59822ZM1.35948 21.5948V5.2255H13.6365C14.0879 5.2255 14.455 5.59268 14.455 6.04397V20.7764C14.455 21.2276 14.0879 21.5948 13.6365 21.5948H1.35948ZM22.6114 4.39118L17.7392 22.5745C17.6433 22.932 17.3186 23.1816 16.9495 23.1816C16.8784 23.1816 16.8068 23.1721 16.7367 23.1532L13.8826 22.3885C14.6689 22.269 15.2734 21.5961 15.2734 20.7764V14.2878L15.6926 14.4002L16.1164 12.819L15.3257 12.6071L15.2734 12.8028V6.29856C15.5285 6.36695 15.8231 6.44588 16.1086 6.52241L17.0766 9.68691L17.7541 9.86851L17.69 6.94612C18.135 7.06541 18.5894 7.18711 18.8871 7.26691L19.4132 8.19469L19.865 8.31572L19.7873 7.02393L20.5005 5.94401L20.0487 5.82298L19.1293 6.36342C18.8314 6.28368 18.3772 6.16193 17.932 6.04264L19.4488 3.54396L18.7712 3.36236L16.3508 5.61898C15.8748 5.49145 15.3555 5.35221 15.0741 5.27691C14.7984 4.76158 14.2615 4.40708 13.6364 4.40708H10.7442L11.5431 1.42562C11.639 1.0682 11.9637 0.818569 12.3328 0.818518C12.4039 0.818518 12.4755 0.828032 12.5456 0.846857L22.0325 3.38891C22.2437 3.44549 22.4202 3.58095 22.5295 3.77027C22.6389 3.95954 22.668 4.18006 22.6114 4.39118Z" fill="#00715D"/>
<path d="M17.4848 11.0803L17.2754 11.8715L18.0531 12.0773L18.2625 11.2861L17.4848 11.0803Z" fill="#00715D"/>
<path d="M19.0385 11.493L18.8291 12.2842L19.6069 12.49L19.8162 11.6988L19.0385 11.493Z" fill="#00715D"/>
<path d="M15.932 10.6689L15.7227 11.46L16.5004 11.6658L16.7098 10.8747L15.932 10.6689Z" fill="#00715D"/>
</svg>
