<svg width="46" height="56" viewBox="0 0 46 56" fill="none" xmlns="http://www.w3.org/2000/svg">
<path d="M23 0.5L0.5 10.5V25.5C0.5 39.375 10.1 52.35 23 55.5C35.9 52.35 45.5 39.375 45.5 25.5V10.5L23 0.5ZM40.5 25.5C40.5 30.125 39.225 34.625 37.05 38.525L33.425 34.9C36.65 30.05 36.1 23.45 31.825 19.175C26.95 14.3 19.025 14.3 14.15 19.175C9.275 24.05 9.275 31.975 14.15 36.85C18.425 41.125 25.025 41.65 29.875 38.45L34.175 42.75C31.2 46.3 27.35 49.025 23 50.35C12.95 47.225 5.5 36.8 5.5 25.5V13.75L23 5.975L40.5 13.75V25.5ZM23 35.5C18.85 35.5 15.5 32.15 15.5 28C15.5 23.85 18.85 20.5 23 20.5C27.15 20.5 30.5 23.85 30.5 28C30.5 32.15 27.15 35.5 23 35.5Z" fill="#00715D"/>
</svg>
